<svg xmlns="http://www.w3.org/2000/svg" xmlns:xlink="http://www.w3.org/1999/xlink" version="1.1" class="marks" width="1164" height="364" viewBox="0 0 1164 364"><rect width="1164" height="364" fill="white"/><g fill="none" stroke-miterlimit="10" transform="translate(53,27)"><g class="mark-group role-frame root" role="graphics-object" aria-roledescription="group mark container"><g transform="translate(0,0)"><path class="background" aria-hidden="true" d="M0.5,0.5h1000v300h-1000Z" stroke="#ddd"/><g><g class="mark-group role-axis" aria-hidden="true"><g transform="translate(0.5,300.5)"><path class="background" aria-hidden="true" d="M0,0h0v0h0Z" pointer-events="none"/><g><g class="mark-rule role-axis-grid" pointer-events="none"><line transform="translate(0,-300)" x2="0" y2="300" stroke="#ddd" stroke-width="1" opacity="1"/><line transform="translate(42,-300)" x2="0" y2="300" stroke="#ddd" stroke-width="1" opacity="1"/><line transform="translate(84,-300)" x2="0" y2="300" stroke="#ddd" stroke-width="1" opacity="1"/><line transform="translate(125,-300)" x2="0" y2="300" stroke="#ddd" stroke-width="1" opacity="1"/><line transform="translate(167,-300)" x2="0" y2="300" stroke="#ddd" stroke-width="1" opacity="1"/><line transform="translate(209,-300)" x2="0" y2="300" stroke="#ddd" stroke-width="1" opacity="1"/><line transform="translate(251,-300)" x2="0" y2="300" stroke="#ddd" stroke-width="1" opacity="1"/><line transform="translate(293,-300)" x2="0" y2="300" stroke="#ddd" stroke-width="1" opacity="1"/><line transform="translate(334,-300)" x2="0" y2="300" stroke="#ddd" stroke-width="1" opacity="1"/><line transform="translate(376,-300)" x2="0" y2="300" stroke="#ddd" stroke-width="1" opacity="1"/><line transform="translate(418,-300)" x2="0" y2="300" stroke="#ddd" stroke-width="1" opacity="1"/><line transform="translate(460,-300)" x2="0" y2="300" stroke="#ddd" stroke-width="1" opacity="1"/><line transform="translate(502,-300)" x2="0" y2="300" stroke="#ddd" stroke-width="1" opacity="1"/><line transform="translate(544,-300)" x2="0" y2="300" stroke="#ddd" stroke-width="1" opacity="1"/><line transform="translate(585,-300)" x2="0" y2="300" stroke="#ddd" stroke-width="1" opacity="1"/><line transform="translate(627,-300)" x2="0" y2="300" stroke="#ddd" stroke-width="1" opacity="1"/><line transform="translate(669,-300)" x2="0" y2="300" stroke="#ddd" stroke-width="1" opacity="1"/><line transform="translate(711,-300)" x2="0" y2="300" stroke="#ddd" stroke-width="1" opacity="1"/><line transform="translate(753,-300)" x2="0" y2="300" stroke="#ddd" stroke-width="1" opacity="1"/><line transform="translate(794,-300)" x2="0" y2="300" stroke="#ddd" stroke-width="1" opacity="1"/><line transform="translate(836,-300)" x2="0" y2="300" stroke="#ddd" stroke-width="1" opacity="1"/><line transform="translate(878,-300)" x2="0" y2="300" stroke="#ddd" stroke-width="1" opacity="1"/><line transform="translate(920,-300)" x2="0" y2="300" stroke="#ddd" stroke-width="1" opacity="1"/><line transform="translate(962,-300)" x2="0" y2="300" stroke="#ddd" stroke-width="1" opacity="1"/></g></g><path class="foreground" aria-hidden="true" d="" pointer-events="none" display="none"/></g></g><g class="mark-group role-axis" aria-hidden="true"><g transform="translate(0.5,0.5)"><path class="background" aria-hidden="true" d="M0,0h0v0h0Z" pointer-events="none"/><g><g class="mark-rule role-axis-grid" pointer-events="none"><line transform="translate(0,300)" x2="1000" y2="0" stroke="#ddd" stroke-width="1" opacity="1"/><line transform="translate(0,270)" x2="1000" y2="0" stroke="#ddd" stroke-width="1" opacity="1"/><line transform="translate(0,240)" x2="1000" y2="0" stroke="#ddd" stroke-width="1" opacity="1"/><line transform="translate(0,210)" x2="1000" y2="0" stroke="#ddd" stroke-width="1" opacity="1"/><line transform="translate(0,180)" x2="1000" y2="0" stroke="#ddd" stroke-width="1" opacity="1"/><line transform="translate(0,150)" x2="1000" y2="0" stroke="#ddd" stroke-width="1" opacity="1"/><line transform="translate(0,120)" x2="1000" y2="0" stroke="#ddd" stroke-width="1" opacity="1"/><line transform="translate(0,90)" x2="1000" y2="0" stroke="#ddd" stroke-width="1" opacity="1"/><line transform="translate(0,60)" x2="1000" y2="0" stroke="#ddd" stroke-width="1" opacity="1"/><line transform="translate(0,30)" x2="1000" y2="0" stroke="#ddd" stroke-width="1" opacity="1"/><line transform="translate(0,0)" x2="1000" y2="0" stroke="#ddd" stroke-width="1" opacity="1"/></g></g><path class="foreground" aria-hidden="true" d="" pointer-events="none" display="none"/></g></g><g class="mark-group role-axis" role="graphics-symbol" aria-roledescription="axis" aria-label="X-axis titled 'Time of day' for a time scale with values from 00:00 to 23:55"><g transform="translate(0.5,300.5)"><path class="background" aria-hidden="true" d="M0,0h0v0h0Z" pointer-events="none"/><g><g class="mark-rule role-axis-tick" pointer-events="none"><line transform="translate(0,0)" x2="0" y2="5" stroke="#888" stroke-width="1" opacity="1"/><line transform="translate(42,0)" x2="0" y2="5" stroke="#888" stroke-width="1" opacity="1"/><line transform="translate(84,0)" x2="0" y2="5" stroke="#888" stroke-width="1" opacity="1"/><line transform="translate(125,0)" x2="0" y2="5" stroke="#888" stroke-width="1" opacity="1"/><line transform="translate(167,0)" x2="0" y2="5" stroke="#888" stroke-width="1" opacity="1"/><line transform="translate(209,0)" x2="0" y2="5" stroke="#888" stroke-width="1" opacity="1"/><line transform="translate(251,0)" x2="0" y2="5" stroke="#888" stroke-width="1" opacity="1"/><line transform="translate(293,0)" x2="0" y2="5" stroke="#888" stroke-width="1" opacity="1"/><line transform="translate(334,0)" x2="0" y2="5" stroke="#888" stroke-width="1" opacity="1"/><line transform="translate(376,0)" x2="0" y2="5" stroke="#888" stroke-width="1" opacity="1"/><line transform="translate(418,0)" x2="0" y2="5" stroke="#888" stroke-width="1" opacity="1"/><line transform="translate(460,0)" x2="0" y2="5" stroke="#888" stroke-width="1" opacity="1"/><line transform="translate(502,0)" x2="0" y2="5" stroke="#888" stroke-width="1" opacity="1"/><line transform="translate(544,0)" x2="0" y2="5" stroke="#888" stroke-width="1" opacity="1"/><line transform="translate(585,0)" x2="0" y2="5" stroke="#888" stroke-width="1" opacity="1"/><line transform="translate(627,0)" x2="0" y2="5" stroke="#888" stroke-width="1" opacity="1"/><line transform="translate(669,0)" x2="0" y2="5" stroke="#888" stroke-width="1" opacity="1"/><line transform="translate(711,0)" x2="0" y2="5" stroke="#888" stroke-width="1" opacity="1"/><line transform="translate(753,0)" x2="0" y2="5" stroke="#888" stroke-width="1" opacity="1"/><line transform="translate(794,0)" x2="0" y2="5" stroke="#888" stroke-width="1" opacity="1"/><line transform="translate(836,0)" x2="0" y2="5" stroke="#888" stroke-width="1" opacity="1"/><line transform="translate(878,0)" x2="0" y2="5" stroke="#888" stroke-width="1" opacity="1"/><line transform="translate(920,0)" x2="0" y2="5" stroke="#888" stroke-width="1" opacity="1"/><line transform="translate(962,0)" x2="0" y2="5" stroke="#888" stroke-width="1" opacity="1"/></g><g class="mark-text role-axis-label" pointer-events="none"><text text-anchor="start" transform="translate(0,15)" font-family="sans-serif" font-size="10px" fill="#000" opacity="1">00:00</text><text text-anchor="middle" transform="translate(41.811846689895475,15)" font-family="sans-serif" font-size="10px" fill="#000" opacity="1">01:00</text><text text-anchor="middle" transform="translate(83.62369337979095,15)" font-family="sans-serif" font-size="10px" fill="#000" opacity="1">02:00</text><text text-anchor="middle" transform="translate(125.43554006968641,15)" font-family="sans-serif" font-size="10px" fill="#000" opacity="1">03:00</text><text text-anchor="middle" transform="translate(167.2473867595819,15)" font-family="sans-serif" font-size="10px" fill="#000" opacity="1">04:00</text><text text-anchor="middle" transform="translate(209.05923344947735,15)" font-family="sans-serif" font-size="10px" fill="#000" opacity="1">05:00</text><text text-anchor="middle" transform="translate(250.87108013937282,15)" font-family="sans-serif" font-size="10px" fill="#000" opacity="1">06:00</text><text text-anchor="middle" transform="translate(292.6829268292683,15)" font-family="sans-serif" font-size="10px" fill="#000" opacity="1">07:00</text><text text-anchor="middle" transform="translate(334.4947735191638,15)" font-family="sans-serif" font-size="10px" fill="#000" opacity="1">08:00</text><text text-anchor="middle" transform="translate(376.30662020905925,15)" font-family="sans-serif" font-size="10px" fill="#000" opacity="1">09:00</text><text text-anchor="middle" transform="translate(418.1184668989547,15)" font-family="sans-serif" font-size="10px" fill="#000" opacity="1">10:00</text><text text-anchor="middle" transform="translate(459.9303135888502,15)" font-family="sans-serif" font-size="10px" fill="#000" opacity="1">11:00</text><text text-anchor="middle" transform="translate(501.74216027874564,15)" font-family="sans-serif" font-size="10px" fill="#000" opacity="1">12:00</text><text text-anchor="middle" transform="translate(543.554006968641,15)" font-family="sans-serif" font-size="10px" fill="#000" opacity="1">13:00</text><text text-anchor="middle" transform="translate(585.3658536585366,15)" font-family="sans-serif" font-size="10px" fill="#000" opacity="1">14:00</text><text text-anchor="middle" transform="translate(627.177700348432,15)" font-family="sans-serif" font-size="10px" fill="#000" opacity="1">15:00</text><text text-anchor="middle" transform="translate(668.9895470383276,15)" font-family="sans-serif" font-size="10px" fill="#000" opacity="1">16:00</text><text text-anchor="middle" transform="translate(710.801393728223,15)" font-family="sans-serif" font-size="10px" fill="#000" opacity="1">17:00</text><text text-anchor="middle" transform="translate(752.6132404181185,15)" font-family="sans-serif" font-size="10px" fill="#000" opacity="1">18:00</text><text text-anchor="middle" transform="translate(794.4250871080139,15)" font-family="sans-serif" font-size="10px" fill="#000" opacity="1">19:00</text><text text-anchor="middle" transform="translate(836.2369337979094,15)" font-family="sans-serif" font-size="10px" fill="#000" opacity="1">20:00</text><text text-anchor="middle" transform="translate(878.0487804878048,15)" font-family="sans-serif" font-size="10px" fill="#000" opacity="1">21:00</text><text text-anchor="middle" transform="translate(919.8606271777004,15)" font-family="sans-serif" font-size="10px" fill="#000" opacity="1">22:00</text><text text-anchor="middle" transform="translate(961.6724738675958,15)" font-family="sans-serif" font-size="10px" fill="#000" opacity="1">23:00</text></g><g class="mark-rule role-axis-domain" pointer-events="none"><line transform="translate(0,0)" x2="1000" y2="0" stroke="#888" stroke-width="1" opacity="1"/></g><g class="mark-text role-axis-title" pointer-events="none"><text text-anchor="middle" transform="translate(500,30)" font-family="sans-serif" font-size="11px" font-weight="bold" fill="#000" opacity="1">Time of day</text></g></g><path class="foreground" aria-hidden="true" d="" pointer-events="none" display="none"/></g></g><g class="mark-group role-axis" role="graphics-symbol" aria-roledescription="axis" aria-label="Y-axis titled 'Population' for a linear scale with values from 0% to 100%"><g transform="translate(0.5,0.5)"><path class="background" aria-hidden="true" d="M0,0h0v0h0Z" pointer-events="none"/><g><g class="mark-rule role-axis-tick" pointer-events="none"><line transform="translate(0,300)" x2="-5" y2="0" stroke="#888" stroke-width="1" opacity="1"/><line transform="translate(0,270)" x2="-5" y2="0" stroke="#888" stroke-width="1" opacity="1"/><line transform="translate(0,240)" x2="-5" y2="0" stroke="#888" stroke-width="1" opacity="1"/><line transform="translate(0,210)" x2="-5" y2="0" stroke="#888" stroke-width="1" opacity="1"/><line transform="translate(0,180)" x2="-5" y2="0" stroke="#888" stroke-width="1" opacity="1"/><line transform="translate(0,150)" x2="-5" y2="0" stroke="#888" stroke-width="1" opacity="1"/><line transform="translate(0,120)" x2="-5" y2="0" stroke="#888" stroke-width="1" opacity="1"/><line transform="translate(0,90)" x2="-5" y2="0" stroke="#888" stroke-width="1" opacity="1"/><line transform="translate(0,60)" x2="-5" y2="0" stroke="#888" stroke-width="1" opacity="1"/><line transform="translate(0,30)" x2="-5" y2="0" stroke="#888" stroke-width="1" opacity="1"/><line transform="translate(0,0)" x2="-5" y2="0" stroke="#888" stroke-width="1" opacity="1"/></g><g class="mark-text role-axis-label" pointer-events="none"><text text-anchor="end" transform="translate(-7,303)" font-family="sans-serif" font-size="10px" fill="#000" opacity="1">0%</text><text text-anchor="end" transform="translate(-7,273)" font-family="sans-serif" font-size="10px" fill="#000" opacity="1">10%</text><text text-anchor="end" transform="translate(-7,243)" font-family="sans-serif" font-size="10px" fill="#000" opacity="1">20%</text><text text-anchor="end" transform="translate(-7,213)" font-family="sans-serif" font-size="10px" fill="#000" opacity="1">30%</text><text text-anchor="end" transform="translate(-7,183)" font-family="sans-serif" font-size="10px" fill="#000" opacity="1">40%</text><text text-anchor="end" transform="translate(-7,153)" font-family="sans-serif" font-size="10px" fill="#000" opacity="1">50%</text><text text-anchor="end" transform="translate(-7,123)" font-family="sans-serif" font-size="10px" fill="#000" opacity="1">60%</text><text text-anchor="end" transform="translate(-7,93.00000000000001)" font-family="sans-serif" font-size="10px" fill="#000" opacity="1">70%</text><text text-anchor="end" transform="translate(-7,62.999999999999986)" font-family="sans-serif" font-size="10px" fill="#000" opacity="1">80%</text><text text-anchor="end" transform="translate(-7,32.99999999999999)" font-family="sans-serif" font-size="10px" fill="#000" opacity="1">90%</text><text text-anchor="end" transform="translate(-7,3)" font-family="sans-serif" font-size="10px" fill="#000" opacity="1">100%</text></g><g class="mark-rule role-axis-domain" pointer-events="none"><line transform="translate(0,300)" x2="0" y2="-300" stroke="#888" stroke-width="1" opacity="1"/></g><g class="mark-text role-axis-title" pointer-events="none"><text text-anchor="middle" transform="translate(-36.576171875,150) rotate(-90) translate(0,-2)" font-family="sans-serif" font-size="11px" font-weight="bold" fill="#000" opacity="1">Population</text></g></g><path class="foreground" aria-hidden="true" d="" pointer-events="none" display="none"/></g></g><g class="mark-group role-scope pathgroup" role="graphics-object" aria-roledescription="group mark container"><g transform="translate(0,0)"><path class="background" aria-hidden="true" d="M0,0h1000v300h-1000Z"/><g><g class="mark-area role-mark marks" role="graphics-object" aria-roledescription="area mark container"><path aria-label="Status: PrepareToSleep; clocktime: 00:00; percentage: 4.10%; status: PrepareToSleep; Time of day: 00:00; Population: 4.101870%" role="graphics-symbol" aria-roledescription="area mark" d="M0,72.89649642986808L3.484320557491289,62.33813384969138L6.968641114982578,54.49745855016338L10.452961672473869,48.05609342853685L13.937282229965156,41.585985719472326L17.421602787456447,37.50075638387993L20.905923344947738,32.38835773931985L24.390243902439025,27.279741014159487L27.874564459930312,21.82621323974343L31.358885017421603,15.014976400822967L34.84320557491289,13.645165194239384L38.32752613240418,9.21426842551133L41.811846689895475,7.164468110855616L45.29616724738676,6.138055185767898L48.78048780487805,3.75468958005567L52.26480836236934,2.0490439307757513L55.749128919860624,1.0271693089676792L59.23344947735192,0.6860401791117021L62.717770034843205,0.005294687159640432L66.20209059233449,0.004538303279677525L69.68641114982579,0.004538303279677525L73.17073170731707,0.003781919399747924L76.65505226480836,0.003781919399747924L80.13937282229965,0.003781919399747924L83.62369337979095,0.003781919399747924L87.10801393728224,0.003781919399714617L90.59233449477352,0.003781919399714617L94.07665505226481,0.003781919399747924L97.5609756097561,0.003781919399747924L101.04529616724739,0.003781919399714617L104.52961672473867,0.003781919399747924L108.01393728222996,0.003781919399714617L111.49825783972125,0.003781919399747924L114.98257839721255,0.003781919399747924L118.46689895470384,0.003781919399747924L121.95121951219512,0.003781919399747924L125.43554006968641,0.003781919399747924L128.91986062717768,0.003781919399714617L132.40418118466897,0.003781919399747924L135.88850174216026,0.003781919399714617L139.37282229965157,0.003781919399747924L142.85714285714286,0.003781919399747924L146.34146341463415,0.003781919399714617L149.82578397212544,0.003781919399714617L153.31010452961672,0.003781919399714617L156.794425087108,0.003781919399714617L160.2787456445993,0.003781919399747924L163.76306620209058,0.003781919399747924L167.2473867595819,0.003781919399747924L170.7317073170732,0.003781919399747924L174.21602787456447,0.004538303279677525L177.70034843205576,0.003781919399747924L181.18466898954705,0.003781919399747924L184.66898954703834,0.003781919399747924L188.15331010452962,0.02344790027835053L191.6376306620209,0.6693997337528845L195.1219512195122,1.0090160958489691L198.60627177700349,1.0090160958489691L202.09059233449477,2.028621566017186L205.57491289198606,2.028621566017186L209.05923344947735,2.028621566017186L212.54355400696863,2.367481544233341L216.02787456445992,2.708610674089318L219.5121951219512,3.0520089555851504L222.9965156794425,4.07312719351326L226.48083623693378,4.752359917705428L229.9651567944251,6.79610916132154L233.44947735191639,8.156843761345767L236.93379790940767,10.1960547016822L240.41811846689896,12.574882004114718L243.90243902439025,14.28204042115453L247.38675958188153,17.68274234539512L250.87108013937282,19.058604623018272L254.35540069686414,22.804973980394514L257.83972125435537,26.55890717657026L261.3240418118467,32.341461938763146L264.80836236933794,38.13384969139536L268.2926829268293,45.28999757957158L271.7770034843205,50.05521602323611L275.26132404181186,61.61200532494251L278.74564459930315,70.42690306184195L282.22996515679444,79.27508168945903L285.7142857142857,90.15339465085322L289.198606271777,100.01966598087861L292.6829268292683,112.94702287304852L296.1672473867596,126.21475251119448L299.65156794425087,138.79719835410867L303.13588850174216,152.05131308241556L306.62020905923345,165.3364395498003L310.10452961672473,178.58979789422727L313.588850174216,189.46130340070192L317.0731707317073,199.32152365968778L320.5574912891986,209.18401307031345L324.0418118466899,221.75208761950864L327.52613240418117,230.25838073338983L331.01045296167246,239.4416374198233L334.4947735191638,250.64141353019482L337.97909407665503,262.2034975190609L341.4634146341464,270.36336681592644L344.9477351916376,275.47803461212635L348.43205574912895,281.94133486627135L351.9163763066202,286.0265642018637L355.4006968641115,291.4725281374803L358.88501742160275,296.6008108435193L362.3693379790941,298.3011618056396L365.8536585365854,300L369.3379790940767,300L372.82229965156796,300L376.30662020905925,300L379.79094076655053,300L383.2752613240418,300L386.7595818815331,300L390.2439024390244,300L393.7282229965157,300L397.21254355400697,300L400.69686411149826,300L404.18118466898954,300L407.66550522648083,300L411.1498257839721,300L414.6341463414634,300L418.1184668989547,300L421.602787456446,300L425.08710801393727,300L428.57142857142856,300L432.05574912891984,300L435.54006968641113,300L439.0243902439024,300L442.5087108013937,300L445.993031358885,300L449.47735191637634,300L452.96167247386757,300L456.4459930313589,300L459.9303135888502,300L463.4146341463415,300L466.89895470383277,300L470.38327526132406,300L473.86759581881535,300L477.35191637630663,300L480.8362369337979,300L484.3205574912892,300L487.8048780487805,300L491.2891986062718,300L494.77351916376307,300L498.25783972125436,300L501.74216027874564,300L505.2264808362369,300L508.7108013937283,300L512.1951219512196,300L515.6794425087107,300L519.163763066202,300L522.6480836236934,300L526.1324041811847,300L529.6167247386759,300L533.1010452961672,300L536.5853658536586,300L540.0696864111499,300L543.554006968641,300L547.0383275261323,300L550.5226480836237,300L554.006968641115,300L557.4912891986063,300L560.9756097560976,300L564.4599303135889,300L567.9442508710802,300L571.4285714285714,300L574.9128919860627,300L578.397212543554,300L581.8815331010453,300L585.3658536585366,300L588.8501742160279,300L592.3344947735192,300L595.8188153310105,300L599.3031358885017,300L602.787456445993,300L606.2717770034843,300L609.7560975609756,300L613.2404181184669,300L616.7247386759582,300L620.2090592334495,300L623.6933797909408,300L627.177700348432,300L630.6620209059233,300L634.1463414634146,300L637.6306620209059,300L641.1149825783972,300L644.5993031358886,300L648.0836236933798,300L651.567944250871,300L655.0522648083623,300L658.5365853658537,300L662.0209059233449,300L665.5052264808362,300L668.9895470383276,300L672.4738675958189,300L675.9581881533101,300L679.4425087108013,300L682.9268292682927,300L686.411149825784,300L689.8954703832752,300L693.3797909407665,300L696.8641114982579,300L700.3484320557492,300L703.8327526132404,300L707.3170731707316,300L710.801393728223,300L714.2857142857143,300L717.7700348432055,300L721.2543554006968,300L724.7386759581882,300L728.2229965156795,300L731.7073170731708,300L735.191637630662,300L738.6759581881533,300L742.1602787456446,300L745.6445993031359,300L749.1289198606271,300L752.6132404181185,300L756.0975609756098,300L759.5818815331011,300L763.0662020905922,300L766.5505226480836,300L770.0348432055749,300L773.5191637630662,300L777.0034843205574,300L780.4878048780488,300L783.9721254355401,300L787.4564459930314,300L790.9407665505227,300L794.4250871080139,300L797.9094076655052,300L801.3937282229965,300L804.8780487804878,300L808.3623693379791,300L811.8466898954704,300L815.3310104529617,300L818.815331010453,300L822.2996515679442,300L825.7839721254355,300L829.2682926829268,300L832.7526132404182,300L836.2369337979094,300L839.7212543554007,300L843.205574912892,299.66114002178386L846.6898954703834,299.66114002178386L850.1742160278745,299.66114002178386L853.6585365853658,298.9826636814716L857.1428571428571,298.9819072975917L860.6271777003485,298.3041873411594L864.1114982578397,297.62571100084716L867.595818815331,296.94496550889505L871.0801393728223,296.94420912501516L874.5644599303137,295.58650006051073L878.0487804878048,295.2468836984146L881.5331010452961,293.21069829359794L885.0174216027874,291.8552583807334L888.5017421602788,291.5111037153576L891.98606271777,290.4930110129493L895.4703832752613,287.4425148251241L898.9547038327527,285.06444390657146L902.439024390244,283.025232966235L905.9233449477351,280.6524567348421L909.4076655052264,276.6156359675663L912.8919860627178,273.8987050707975L916.3763066202091,270.1614123199806L919.8606271777004,265.412077937795L923.3449477351916,263.3713542296986L926.829268292683,257.60165799346487L930.3135888501743,251.15272903303887L933.7979094076655,243.011769333172L937.2822299651567,233.17726612610434L940.7665505226481,228.082264310783L944.2508710801394,218.24246641655574L947.7351916376307,207.72797410141595L951.2195121951219,198.56665254750092L954.7038327526133,192.11394166767514L958.1881533101046,182.9488381943604L961.6724738675958,175.8214328936222L965.156794425087,168.35894953406753L968.6411149825784,159.87534793658475L972.1254355400697,148.14156480697085L975.609756097561,141.88627011981123L979.0940766550522,136.10447174149823L982.5783972125436,126.21475251119448L986.0627177700349,114.99833595546413L989.5470383275261,105.4527713905361L993.0313588850173,94.23559845092583L996.5156794425087,88.45682560813262L1000,81.99125620234781L1000,94.22954737988623L996.5156794425087,101.25257170519181L993.0313588850173,108.1704586711848L989.5470383275261,118.68192545080478L986.0627177700349,127.54220622050103L982.5783972125436,138.29798499334382L979.0940766550522,147.85565170035096L975.609756097561,154.03228246399613L972.1254355400697,160.28757715115574L968.6411149825784,171.47373835168824L965.156794425087,180.1789604259954L961.6724738675958,187.3963754084473L958.1881533101046,194.51470410262615L954.7038327526133,203.3439731332446L951.2195121951219,210.55458066077694L947.7351916376307,219.05709185525836L944.2508710801394,228.36136996248337L940.7665505226481,237.10441123078786L937.2822299651567,241.61624107467023L933.7979094076655,250.4061781435314L930.3135888501743,256.96629553430955L926.829268292683,262.2836742103352L923.3449477351916,267.9043628222195L919.8606271777004,270.20074428173785L916.3763066202091,273.9750998426722L912.8919860627178,277.53842430110126L909.4076655052264,279.89002178385573L905.9233449477351,283.43368026140627L902.439024390244,285.7784702892412L898.9547038327527,287.56126709427565L895.4703832752613,289.6791419581266L891.98606271777,292.03679051192063L888.5017421602788,293.0359736173303L885.0174216027874,293.3597059179475L881.5331010452961,294.59185525838075L878.0487804878048,296.04184315623866L874.5644599303137,296.27480939126224L871.0801393728223,297.36854048166526L867.595818815331,297.3950139174634L864.1114982578397,298.03340191213846L860.6271777003485,298.466053491468L857.1428571428571,299.0129190366695L853.6585365853658,299.0136754205495L850.1742160278745,299.6785368510226L846.6898954703834,299.6785368510226L843.205574912892,299.6785368510226L839.7212543554007,300L836.2369337979094,300L832.7526132404182,300L829.2682926829268,300L825.7839721254355,300L822.2996515679442,300L818.815331010453,300L815.3310104529617,300L811.8466898954704,300L808.3623693379791,300L804.8780487804878,300L801.3937282229965,300L797.9094076655052,300L794.4250871080139,300L790.9407665505227,300L787.4564459930314,300L783.9721254355401,300L780.4878048780488,300L777.0034843205574,300L773.5191637630662,300L770.0348432055749,300L766.5505226480836,300L763.0662020905922,300L759.5818815331011,300L756.0975609756098,300L752.6132404181185,300L749.1289198606271,300L745.6445993031359,300L742.1602787456446,300L738.6759581881533,300L735.191637630662,300L731.7073170731708,300L728.2229965156795,300L724.7386759581882,300L721.2543554006968,300L717.7700348432055,300L714.2857142857143,300L710.801393728223,300L707.3170731707316,300L703.8327526132404,300L700.3484320557492,300L696.8641114982579,300L693.3797909407665,300L689.8954703832752,300L686.411149825784,300L682.9268292682927,300L679.4425087108013,300L675.9581881533101,300L672.4738675958189,300L668.9895470383276,300L665.5052264808362,300L662.0209059233449,300L658.5365853658537,300L655.0522648083623,300L651.567944250871,300L648.0836236933798,300L644.5993031358886,300L641.1149825783972,300L637.6306620209059,300L634.1463414634146,300L630.6620209059233,300L627.177700348432,300L623.6933797909408,300L620.2090592334495,300L616.7247386759582,300L613.2404181184669,300L609.7560975609756,300L606.2717770034843,300L602.787456445993,300L599.3031358885017,300L595.8188153310105,300L592.3344947735192,300L588.8501742160279,300L585.3658536585366,300L581.8815331010453,300L578.397212543554,300L574.9128919860627,300L571.4285714285714,300L567.9442508710802,300L564.4599303135889,300L560.9756097560976,300L557.4912891986063,300L554.006968641115,300L550.5226480836237,300L547.0383275261323,300L543.554006968641,300L540.0696864111499,300L536.5853658536586,300L533.1010452961672,300L529.6167247386759,300L526.1324041811847,300L522.6480836236934,300L519.163763066202,300L515.6794425087107,300L512.1951219512196,300L508.7108013937283,300L505.2264808362369,300L501.74216027874564,300L498.25783972125436,300L494.77351916376307,300L491.2891986062718,300L487.8048780487805,300L484.3205574912892,300L480.8362369337979,300L477.35191637630663,300L473.86759581881535,300L470.38327526132406,300L466.89895470383277,300L463.4146341463415,300L459.9303135888502,300L456.4459930313589,300L452.96167247386757,300L449.47735191637634,300L445.993031358885,300L442.5087108013937,300L439.0243902439024,300L435.54006968641113,300L432.05574912891984,300L428.57142857142856,300L425.08710801393727,300L421.602787456446,300L418.1184668989547,300L414.6341463414634,300L411.1498257839721,300L407.66550522648083,300L404.18118466898954,300L400.69686411149826,300L397.21254355400697,300L393.7282229965157,300L390.2439024390244,300L386.7595818815331,300L383.2752613240418,300L379.79094076655053,300L376.30662020905925,300L372.82229965156796,300L369.3379790940767,300L365.8536585365854,300L362.3693379790941,298.3011618056396L358.88501742160275,296.6008108435193L355.4006968641115,291.4725281374803L351.9163763066202,286.0265642018637L348.43205574912895,281.94133486627135L344.9477351916376,275.47803461212635L341.4634146341464,270.36336681592644L337.97909407665503,262.2034975190609L334.4947735191638,250.64141353019482L331.01045296167246,239.4416374198233L327.52613240418117,230.25838073338983L324.0418118466899,221.75208761950864L320.5574912891986,209.18401307031345L317.0731707317073,199.32152365968778L313.588850174216,189.46130340070192L310.10452961672473,178.58979789422727L306.62020905923345,165.3364395498003L303.13588850174216,152.05131308241556L299.65156794425087,138.79719835410867L296.1672473867596,126.21475251119448L292.6829268292683,112.94702287304852L289.198606271777,100.01966598087861L285.7142857142857,90.15339465085322L282.22996515679444,79.27508168945903L278.74564459930315,70.42690306184195L275.26132404181186,61.61200532494251L271.7770034843205,50.05521602323611L268.2926829268293,45.28999757957158L264.80836236933794,38.13384969139536L261.3240418118467,32.341461938763146L257.83972125435537,26.55890717657026L254.35540069686414,22.804973980394514L250.87108013937282,19.058604623018272L247.38675958188153,17.68274234539512L243.90243902439025,14.28204042115453L240.41811846689896,12.574882004114718L236.93379790940767,10.1960547016822L233.44947735191639,8.156843761345767L229.9651567944251,6.79610916132154L226.48083623693378,4.752359917705428L222.9965156794425,4.07312719351326L219.5121951219512,3.0520089555851504L216.02787456445992,2.708610674089318L212.54355400696863,2.367481544233341L209.05923344947735,2.028621566017186L205.57491289198606,2.028621566017186L202.09059233449477,2.028621566017186L198.60627177700349,1.0090160958489691L195.1219512195122,1.0090160958489691L191.6376306620209,0.6693997337528845L188.15331010452962,0.02344790027835053L184.66898954703834,0.003781919399747924L181.18466898954705,0.003781919399747924L177.70034843205576,0.003781919399747924L174.21602787456447,0.004538303279677525L170.7317073170732,0.003781919399747924L167.2473867595819,0.003781919399747924L163.76306620209058,0.003781919399747924L160.2787456445993,0.003781919399747924L156.794425087108,0.004538303279677525L153.31010452961672,0.00907660655935505L149.82578397212544,0.010589374319247558L146.34146341463415,0.015127677598925082L142.85714285714286,0.01588406147888799L139.37282229965157,0.01588406147888799L135.88850174216026,0.05597240711605611L132.40418118466897,0.07488200411472912L128.91986062717768,0.11345758199200473L125.43554006968641,0.1263161079511077L121.95121951219512,0.17169914074791626L118.46689895470384,0.1981725765460518L114.98257839721255,0.2654907418613184L111.49825783972125,0.2828875711000989L108.01393728222996,0.3751664044535752L104.52961672473867,0.4508047924482672L101.04529616724739,0.5393017064020289L97.5609756097561,0.6164528621566134L94.07665505226481,0.7442817378676136L90.59233449477352,0.9258138690548146L87.10801393728224,1.0975130098027308L83.62369337979095,1.3705675904635117L80.13937282229965,1.5846242284884515L76.65505226480836,1.9166767517850736L73.17073170731707,2.2343579813627L69.68641114982579,2.5596030497397892L66.20209059233449,3.061841946024435L62.717770034843205,3.5504659324700483L59.23344947735192,4.699413046109157L55.749128919860624,5.904332566864323L52.26480836236934,7.796805034491117L48.78048780487805,10.136300375166396L45.29616724738676,13.386481907297599L41.811846689895475,15.716144257533593L38.32752613240418,18.989017306063182L34.84320557491289,24.04846907902699L31.358885017421603,26.87885755778774L27.874564459930312,33.97978942272783L24.390243902439025,40.08002541449835L20.905923344947738,45.50632336923635L17.421602787456447,51.002965024809384L13.937282229965156,55.63959820888296L10.452961672473869,62.261739077816756L6.968641114982578,68.73411593852113L3.484320557491289,75.90387873653636L0,85.20210577272177Z" fill="yellow"/></g></g><path class="foreground" aria-hidden="true" d="" display="none"/></g><g transform="translate(0,0)"><path class="background" aria-hidden="true" d="M0,0h1000v300h-1000Z"/><g><g class="mark-area role-mark marks" role="graphics-object" aria-roledescription="area mark container"><path aria-label="Status: Sleeping; clocktime: 00:00; percentage: 71.60%; status: Sleeping; Time of day: 00:00; Population: 71.599298%" role="graphics-symbol" aria-roledescription="area mark" d="M0,85.20210577272177L3.484320557491289,75.90387873653636L6.968641114982578,68.73411593852113L10.452961672473869,62.261739077816756L13.937282229965156,55.63959820888296L17.421602787456447,51.002965024809384L20.905923344947738,45.50632336923635L24.390243902439025,40.08002541449835L27.874564459930312,33.97978942272783L31.358885017421603,26.87885755778774L34.84320557491289,24.04846907902699L38.32752613240418,18.989017306063182L41.811846689895475,15.716144257533593L45.29616724738676,13.386481907297599L48.78048780487805,10.136300375166396L52.26480836236934,7.796805034491117L55.749128919860624,5.904332566864323L59.23344947735192,4.699413046109157L62.717770034843205,3.5504659324700483L66.20209059233449,3.061841946024435L69.68641114982579,2.5596030497397892L73.17073170731707,2.2343579813627L76.65505226480836,1.9166767517850736L80.13937282229965,1.5846242284884515L83.62369337979095,1.3705675904635117L87.10801393728224,1.0975130098027308L90.59233449477352,0.9258138690548146L94.07665505226481,0.7442817378676136L97.5609756097561,0.6164528621566134L101.04529616724739,0.5393017064020289L104.52961672473867,0.4508047924482672L108.01393728222996,0.3751664044535752L111.49825783972125,0.2828875711000989L114.98257839721255,0.2654907418613184L118.46689895470384,0.1981725765460518L121.95121951219512,0.17169914074791626L125.43554006968641,0.1263161079511077L128.91986062717768,0.11345758199200473L132.40418118466897,0.07488200411472912L135.88850174216026,0.05597240711605611L139.37282229965157,0.01588406147888799L142.85714285714286,0.01588406147888799L146.34146341463415,0.015127677598925082L149.82578397212544,0.010589374319247558L153.31010452961672,0.00907660655935505L156.794425087108,0.004538303279677525L160.2787456445993,0.003781919399747924L163.76306620209058,0.003781919399747924L167.2473867595819,0.003781919399747924L170.7317073170732,0.003781919399747924L174.21602787456447,0.004538303279677525L177.70034843205576,0.003781919399747924L181.18466898954705,0.003781919399747924L184.66898954703834,0.003781919399747924L188.15331010452962,0.02344790027835053L191.6376306620209,0.6693997337528845L195.1219512195122,1.0090160958489691L198.60627177700349,1.0090160958489691L202.09059233449477,2.028621566017186L205.57491289198606,2.028621566017186L209.05923344947735,2.028621566017186L212.54355400696863,2.367481544233341L216.02787456445992,2.708610674089318L219.5121951219512,3.0520089555851504L222.9965156794425,4.07312719351326L226.48083623693378,4.752359917705428L229.9651567944251,6.79610916132154L233.44947735191639,8.156843761345767L236.93379790940767,10.1960547016822L240.41811846689896,12.574882004114718L243.90243902439025,14.28204042115453L247.38675958188153,17.68274234539512L250.87108013937282,19.058604623018272L254.35540069686414,22.804973980394514L257.83972125435537,26.55890717657026L261.3240418118467,32.341461938763146L264.80836236933794,38.13384969139536L268.2926829268293,45.28999757957158L271.7770034843205,50.05521602323611L275.26132404181186,61.61200532494251L278.74564459930315,70.42690306184195L282.22996515679444,79.27508168945903L285.7142857142857,90.15339465085322L289.198606271777,100.01966598087861L292.6829268292683,112.94702287304852L296.1672473867596,126.21475251119448L299.65156794425087,138.79719835410867L303.13588850174216,152.05131308241556L306.62020905923345,165.3364395498003L310.10452961672473,178.58979789422727L313.588850174216,189.46130340070192L317.0731707317073,199.32152365968778L320.5574912891986,209.18401307031345L324.0418118466899,221.75208761950864L327.52613240418117,230.25838073338983L331.01045296167246,239.4416374198233L334.4947735191638,250.64141353019482L337.97909407665503,262.2034975190609L341.4634146341464,270.36336681592644L344.9477351916376,275.47803461212635L348.43205574912895,281.94133486627135L351.9163763066202,286.0265642018637L355.4006968641115,291.4725281374803L358.88501742160275,296.6008108435193L362.3693379790941,298.3011618056396L365.8536585365854,300L369.3379790940767,300L372.82229965156796,300L376.30662020905925,300L379.79094076655053,300L383.2752613240418,300L386.7595818815331,300L390.2439024390244,300L393.7282229965157,300L397.21254355400697,300L400.69686411149826,300L404.18118466898954,300L407.66550522648083,300L411.1498257839721,300L414.6341463414634,300L418.1184668989547,300L421.602787456446,300L425.08710801393727,300L428.57142857142856,300L432.05574912891984,300L435.54006968641113,300L439.0243902439024,300L442.5087108013937,300L445.993031358885,300L449.47735191637634,300L452.96167247386757,300L456.4459930313589,300L459.9303135888502,300L463.4146341463415,300L466.89895470383277,300L470.38327526132406,300L473.86759581881535,300L477.35191637630663,300L480.8362369337979,300L484.3205574912892,300L487.8048780487805,300L491.2891986062718,300L494.77351916376307,300L498.25783972125436,300L501.74216027874564,300L505.2264808362369,300L508.7108013937283,300L512.1951219512196,300L515.6794425087107,300L519.163763066202,300L522.6480836236934,300L526.1324041811847,300L529.6167247386759,300L533.1010452961672,300L536.5853658536586,300L540.0696864111499,300L543.554006968641,300L547.0383275261323,300L550.5226480836237,300L554.006968641115,300L557.4912891986063,300L560.9756097560976,300L564.4599303135889,300L567.9442508710802,300L571.4285714285714,300L574.9128919860627,300L578.397212543554,300L581.8815331010453,300L585.3658536585366,300L588.8501742160279,300L592.3344947735192,300L595.8188153310105,300L599.3031358885017,300L602.787456445993,300L606.2717770034843,300L609.7560975609756,300L613.2404181184669,300L616.7247386759582,300L620.2090592334495,300L623.6933797909408,300L627.177700348432,300L630.6620209059233,300L634.1463414634146,300L637.6306620209059,300L641.1149825783972,300L644.5993031358886,300L648.0836236933798,300L651.567944250871,300L655.0522648083623,300L658.5365853658537,300L662.0209059233449,300L665.5052264808362,300L668.9895470383276,300L672.4738675958189,300L675.9581881533101,300L679.4425087108013,300L682.9268292682927,300L686.411149825784,300L689.8954703832752,300L693.3797909407665,300L696.8641114982579,300L700.3484320557492,300L703.8327526132404,300L707.3170731707316,300L710.801393728223,300L714.2857142857143,300L717.7700348432055,300L721.2543554006968,300L724.7386759581882,300L728.2229965156795,300L731.7073170731708,300L735.191637630662,300L738.6759581881533,300L742.1602787456446,300L745.6445993031359,300L749.1289198606271,300L752.6132404181185,300L756.0975609756098,300L759.5818815331011,300L763.0662020905922,300L766.5505226480836,300L770.0348432055749,300L773.5191637630662,300L777.0034843205574,300L780.4878048780488,300L783.9721254355401,300L787.4564459930314,300L790.9407665505227,300L794.4250871080139,300L797.9094076655052,300L801.3937282229965,300L804.8780487804878,300L808.3623693379791,300L811.8466898954704,300L815.3310104529617,300L818.815331010453,300L822.2996515679442,300L825.7839721254355,300L829.2682926829268,300L832.7526132404182,300L836.2369337979094,300L839.7212543554007,300L843.205574912892,299.6785368510226L846.6898954703834,299.6785368510226L850.1742160278745,299.6785368510226L853.6585365853658,299.0136754205495L857.1428571428571,299.0129190366695L860.6271777003485,298.466053491468L864.1114982578397,298.03340191213846L867.595818815331,297.3950139174634L871.0801393728223,297.36854048166526L874.5644599303137,296.27480939126224L878.0487804878048,296.04184315623866L881.5331010452961,294.59185525838075L885.0174216027874,293.3597059179475L888.5017421602788,293.0359736173303L891.98606271777,292.03679051192063L895.4703832752613,289.6791419581266L898.9547038327527,287.56126709427565L902.439024390244,285.7784702892412L905.9233449477351,283.43368026140627L909.4076655052264,279.89002178385573L912.8919860627178,277.53842430110126L916.3763066202091,273.9750998426722L919.8606271777004,270.20074428173785L923.3449477351916,267.9043628222195L926.829268292683,262.2836742103352L930.3135888501743,256.96629553430955L933.7979094076655,250.4061781435314L937.2822299651567,241.61624107467023L940.7665505226481,237.10441123078786L944.2508710801394,228.36136996248337L947.7351916376307,219.05709185525836L951.2195121951219,210.55458066077694L954.7038327526133,203.3439731332446L958.1881533101046,194.51470410262615L961.6724738675958,187.3963754084473L965.156794425087,180.1789604259954L968.6411149825784,171.47373835168824L972.1254355400697,160.28757715115574L975.609756097561,154.03228246399613L979.0940766550522,147.85565170035096L982.5783972125436,138.29798499334382L986.0627177700349,127.54220622050103L989.5470383275261,118.68192545080478L993.0313588850173,108.1704586711848L996.5156794425087,101.25257170519181L1000,94.22954737988623L1000,300L996.5156794425087,300L993.0313588850173,300L989.5470383275261,300L986.0627177700349,300L982.5783972125436,300L979.0940766550522,300L975.609756097561,300L972.1254355400697,300L968.6411149825784,300L965.156794425087,300L961.6724738675958,300L958.1881533101046,300L954.7038327526133,300L951.2195121951219,300L947.7351916376307,300L944.2508710801394,300L940.7665505226481,300L937.2822299651567,300L933.7979094076655,300L930.3135888501743,300L926.829268292683,300L923.3449477351916,300L919.8606271777004,300L916.3763066202091,300L912.8919860627178,300L909.4076655052264,300L905.9233449477351,300L902.439024390244,300L898.9547038327527,300L895.4703832752613,300L891.98606271777,300L888.5017421602788,300L885.0174216027874,300L881.5331010452961,300L878.0487804878048,300L874.5644599303137,300L871.0801393728223,300L867.595818815331,300L864.1114982578397,300L860.6271777003485,300L857.1428571428571,300L853.6585365853658,300L850.1742160278745,300L846.6898954703834,300L843.205574912892,300L839.7212543554007,300L836.2369337979094,300L832.7526132404182,300L829.2682926829268,300L825.7839721254355,300L822.2996515679442,300L818.815331010453,300L815.3310104529617,300L811.8466898954704,300L808.3623693379791,300L804.8780487804878,300L801.3937282229965,300L797.9094076655052,300L794.4250871080139,300L790.9407665505227,300L787.4564459930314,300L783.9721254355401,300L780.4878048780488,300L777.0034843205574,300L773.5191637630662,300L770.0348432055749,300L766.5505226480836,300L763.0662020905922,300L759.5818815331011,300L756.0975609756098,300L752.6132404181185,300L749.1289198606271,300L745.6445993031359,300L742.1602787456446,300L738.6759581881533,300L735.191637630662,300L731.7073170731708,300L728.2229965156795,300L724.7386759581882,300L721.2543554006968,300L717.7700348432055,300L714.2857142857143,300L710.801393728223,300L707.3170731707316,300L703.8327526132404,300L700.3484320557492,300L696.8641114982579,300L693.3797909407665,300L689.8954703832752,300L686.411149825784,300L682.9268292682927,300L679.4425087108013,300L675.9581881533101,300L672.4738675958189,300L668.9895470383276,300L665.5052264808362,300L662.0209059233449,300L658.5365853658537,300L655.0522648083623,300L651.567944250871,300L648.0836236933798,300L644.5993031358886,300L641.1149825783972,300L637.6306620209059,300L634.1463414634146,300L630.6620209059233,300L627.177700348432,300L623.6933797909408,300L620.2090592334495,300L616.7247386759582,300L613.2404181184669,300L609.7560975609756,300L606.2717770034843,300L602.787456445993,300L599.3031358885017,300L595.8188153310105,300L592.3344947735192,300L588.8501742160279,300L585.3658536585366,300L581.8815331010453,300L578.397212543554,300L574.9128919860627,300L571.4285714285714,300L567.9442508710802,300L564.4599303135889,300L560.9756097560976,300L557.4912891986063,300L554.006968641115,300L550.5226480836237,300L547.0383275261323,300L543.554006968641,300L540.0696864111499,300L536.5853658536586,300L533.1010452961672,300L529.6167247386759,300L526.1324041811847,300L522.6480836236934,300L519.163763066202,300L515.6794425087107,300L512.1951219512196,300L508.7108013937283,300L505.2264808362369,300L501.74216027874564,300L498.25783972125436,300L494.77351916376307,300L491.2891986062718,300L487.8048780487805,300L484.3205574912892,300L480.8362369337979,300L477.35191637630663,300L473.86759581881535,300L470.38327526132406,300L466.89895470383277,300L463.4146341463415,300L459.9303135888502,300L456.4459930313589,300L452.96167247386757,300L449.47735191637634,300L445.993031358885,300L442.5087108013937,300L439.0243902439024,300L435.54006968641113,300L432.05574912891984,300L428.57142857142856,300L425.08710801393727,300L421.602787456446,300L418.1184668989547,300L414.6341463414634,300L411.1498257839721,300L407.66550522648083,300L404.18118466898954,300L400.69686411149826,300L397.21254355400697,300L393.7282229965157,300L390.2439024390244,300L386.7595818815331,300L383.2752613240418,300L379.79094076655053,300L376.30662020905925,300L372.82229965156796,300L369.3379790940767,300L365.8536585365854,300L362.3693379790941,300L358.88501742160275,300L355.4006968641115,300L351.9163763066202,300L348.43205574912895,300L344.9477351916376,300L341.4634146341464,300L337.97909407665503,300L334.4947735191638,300L331.01045296167246,300L327.52613240418117,300L324.0418118466899,300L320.5574912891986,300L317.0731707317073,300L313.588850174216,300L310.10452961672473,300L306.62020905923345,300L303.13588850174216,300L299.65156794425087,300L296.1672473867596,300L292.6829268292683,300L289.198606271777,300L285.7142857142857,300L282.22996515679444,300L278.74564459930315,300L275.26132404181186,300L271.7770034843205,300L268.2926829268293,300L264.80836236933794,300L261.3240418118467,300L257.83972125435537,300L254.35540069686414,300L250.87108013937282,300L247.38675958188153,300L243.90243902439025,300L240.41811846689896,300L236.93379790940767,300L233.44947735191639,300L229.9651567944251,300L226.48083623693378,300L222.9965156794425,300L219.5121951219512,300L216.02787456445992,300L212.54355400696863,300L209.05923344947735,300L205.57491289198606,300L202.09059233449477,300L198.60627177700349,300L195.1219512195122,300L191.6376306620209,300L188.15331010452962,300L184.66898954703834,300L181.18466898954705,300L177.70034843205576,300L174.21602787456447,300L170.7317073170732,300L167.2473867595819,300L163.76306620209058,300L160.2787456445993,300L156.794425087108,300L153.31010452961672,300L149.82578397212544,300L146.34146341463415,300L142.85714285714286,300L139.37282229965157,300L135.88850174216026,300L132.40418118466897,300L128.91986062717768,300L125.43554006968641,300L121.95121951219512,300L118.46689895470384,300L114.98257839721255,300L111.49825783972125,300L108.01393728222996,300L104.52961672473867,300L101.04529616724739,300L97.5609756097561,300L94.07665505226481,300L90.59233449477352,300L87.10801393728224,300L83.62369337979095,300L80.13937282229965,300L76.65505226480836,300L73.17073170731707,300L69.68641114982579,300L66.20209059233449,300L62.717770034843205,300L59.23344947735192,300L55.749128919860624,300L52.26480836236934,300L48.78048780487805,300L45.29616724738676,300L41.811846689895475,300L38.32752613240418,300L34.84320557491289,300L31.358885017421603,300L27.874564459930312,300L24.390243902439025,300L20.905923344947738,300L17.421602787456447,300L13.937282229965156,300L10.452961672473869,300L6.968641114982578,300L3.484320557491289,300L0,300Z" fill="steelblue"/></g></g><path class="foreground" aria-hidden="true" d="" display="none"/></g><g transform="translate(0,0)"><path class="background" aria-hidden="true" d="M0,0h1000v300h-1000Z"/><g><g class="mark-area role-mark marks" role="graphics-object" aria-roledescription="area mark container"><path aria-label="Status: Awake; clocktime: 00:00; percentage: 24.30%; status: Awake; Time of day: 00:00; Population: 24.298580%" role="graphics-symbol" aria-roledescription="area mark" d="M0,0.0007563838799296008L3.484320557491289,0.0007563838799296008L6.968641114982578,0.0015127677598925082L10.452961672473869,0.003781919399714617L13.937282229965156,0.003781919399714617L17.421602787456447,0.003781919399714617L20.905923344947738,0.003781919399714617L24.390243902439025,0.003781919399714617L27.874564459930312,0.003781919399714617L31.358885017421603,0.003781919399747924L34.84320557491289,0.003781919399747924L38.32752613240418,0.003781919399747924L41.811846689895475,0.003781919399714617L45.29616724738676,0.003781919399747924L48.78048780487805,0.003781919399747924L52.26480836236934,0.003781919399747924L55.749128919860624,0.003781919399714617L59.23344947735192,0.003781919399747924L62.717770034843205,0.003781919399747924L66.20209059233449,0.003781919399714617L69.68641114982579,0.003781919399714617L73.17073170731707,0.003781919399747924L76.65505226480836,0.003781919399747924L80.13937282229965,0.003781919399747924L83.62369337979095,0.003781919399747924L87.10801393728224,0.003781919399714617L90.59233449477352,0.003781919399714617L94.07665505226481,0.003781919399747924L97.5609756097561,0.003781919399747924L101.04529616724739,0.003781919399714617L104.52961672473867,0.003781919399747924L108.01393728222996,0.003781919399714617L111.49825783972125,0.003781919399747924L114.98257839721255,0.003781919399747924L118.46689895470384,0.003781919399747924L121.95121951219512,0.003781919399747924L125.43554006968641,0.003781919399747924L128.91986062717768,0.003781919399714617L132.40418118466897,0.003781919399747924L135.88850174216026,0.003781919399714617L139.37282229965157,0.003781919399747924L142.85714285714286,0.003781919399747924L146.34146341463415,0.003781919399714617L149.82578397212544,0.003781919399714617L153.31010452961672,0.003781919399714617L156.794425087108,0.003781919399714617L160.2787456445993,0.003781919399747924L163.76306620209058,0.003781919399747924L167.2473867595819,0.003781919399747924L170.7317073170732,0.003781919399747924L174.21602787456447,0.004538303279677525L177.70034843205576,0.003781919399747924L181.18466898954705,0.003781919399747924L184.66898954703834,0.003781919399747924L188.15331010452962,0.02344790027835053L191.6376306620209,0.6693997337528845L195.1219512195122,0.6693997337528845L198.60627177700349,0.6693997337528845L202.09059233449477,0.6693997337528845L205.57491289198606,0.6693997337528845L209.05923344947735,0.6693997337528845L212.54355400696863,0.6693997337528845L216.02787456445992,0.6693997337528845L219.5121951219512,0.6693997337528845L222.9965156794425,0.6693997337528845L226.48083623693378,0.6693997337528845L229.9651567944251,0.6701561176328141L233.44947735191639,0.6701561176328141L236.93379790940767,0.6701561176328141L240.41811846689896,0.6701561176328141L243.90243902439025,0.6709125015127437L247.38675958188153,0.6724252692726362L250.87108013937282,0.6731816531525991L254.35540069686414,0.6746944209124917L257.83972125435537,0.6769635725523471L261.3240418118467,0.6799891080720988L264.80836236933794,0.6830146435918838L268.2926829268293,0.6852837952317392L271.7770034843205,0.6883093307515575L275.26132404181186,0.6890657146314871L278.74564459930315,0.6951167856710572L282.22996515679444,0.6973859373108793L285.7142857142857,0.6996550889507347L289.198606271777,0.7026806244705197L292.6829268292683,0.7049497761103751L296.1672473867596,0.7049497761103751L299.65156794425087,0.7079753116301601L303.13588850174216,0.709488079390086L306.62020905923345,0.7117572310298748L310.10452961672473,0.715539150429656L313.588850174216,0.7193210698293706L317.0731707317073,0.7208338375892298L320.5574912891986,0.721590221469226L324.0418118466899,0.7238593731090481L327.52613240418117,0.7253721408689406L331.01045296167246,0.7261285247488702L334.4947735191638,0.7268849086288331L337.97909407665503,0.7314232119085107L341.4634146341464,0.7336923635483328L344.9477351916376,0.7367178990681511L348.43205574912895,0.7367178990681511L351.9163763066202,0.7389870507079732L355.4006968641115,0.7397434345879361L358.88501742160275,0.7404998184678657L362.3693379790941,0.740499818467899L365.8536585365854,0.7412562023478286L369.3379790940767,0.7412562023478286L372.82229965156796,0.7412562023478286L376.30662020905925,0.7412562023478286L379.79094076655053,0.7412562023478286L383.2752613240418,0.7412562023478286L386.7595818815331,0.7412562023478286L390.2439024390244,0.7412562023478286L393.7282229965157,0.7412562023478286L397.21254355400697,0.7412562023478286L400.69686411149826,0.7412562023478286L404.18118466898954,0.7412562023478286L407.66550522648083,0.7412562023478286L411.1498257839721,0.7412562023478286L414.6341463414634,0.7412562023478286L418.1184668989547,0.7412562023478286L421.602787456446,0.7412562023478286L425.08710801393727,0.7412562023478286L428.57142857142856,0.7412562023478286L432.05574912891984,0.7412562023478286L435.54006968641113,0.7412562023478286L439.0243902439024,0.7412562023478286L442.5087108013937,0.7412562023478286L445.993031358885,0.7412562023478286L449.47735191637634,0.7412562023478286L452.96167247386757,0.7412562023478286L456.4459930313589,0.7412562023478286L459.9303135888502,0.7412562023478286L463.4146341463415,0.7412562023478286L466.89895470383277,0.7412562023478286L470.38327526132406,0.7412562023478286L473.86759581881535,0.7412562023478286L477.35191637630663,0.7412562023478286L480.8362369337979,0.7412562023478286L484.3205574912892,0.7412562023478286L487.8048780487805,0.7412562023478286L491.2891986062718,0.7412562023478286L494.77351916376307,0.7412562023478286L498.25783972125436,0.7412562023478286L501.74216027874564,0.7412562023478286L505.2264808362369,0.7412562023478286L508.7108013937283,0.7412562023478286L512.1951219512196,0.7412562023478286L515.6794425087107,0.7412562023478286L519.163763066202,0.7412562023478286L522.6480836236934,0.7412562023478286L526.1324041811847,0.7412562023478286L529.6167247386759,0.7412562023478286L533.1010452961672,0.7412562023478286L536.5853658536586,0.7412562023478286L540.0696864111499,0.7412562023478286L543.554006968641,0.7412562023478286L547.0383275261323,0.7412562023478286L550.5226480836237,0.7412562023478286L554.006968641115,0.7412562023478286L557.4912891986063,0.7412562023478286L560.9756097560976,0.7412562023478286L564.4599303135889,0.7412562023478286L567.9442508710802,0.7412562023478286L571.4285714285714,0.7412562023478286L574.9128919860627,0.7412562023478286L578.397212543554,0.7412562023478286L581.8815331010453,0.7412562023478286L585.3658536585366,0.7412562023478286L588.8501742160279,0.7412562023478286L592.3344947735192,0.7412562023478286L595.8188153310105,0.7412562023478286L599.3031358885017,0.7412562023478286L602.787456445993,0.7412562023478286L606.2717770034843,0.7412562023478286L609.7560975609756,0.7412562023478286L613.2404181184669,0.7412562023478286L616.7247386759582,0.7412562023478286L620.2090592334495,0.7412562023478286L623.6933797909408,0.7412562023478286L627.177700348432,0.7412562023478286L630.6620209059233,0.7412562023478286L634.1463414634146,0.7412562023478286L637.6306620209059,0.7412562023478286L641.1149825783972,0.7412562023478286L644.5993031358886,0.7412562023478286L648.0836236933798,0.7412562023478286L651.567944250871,0.7412562023478286L655.0522648083623,0.7412562023478286L658.5365853658537,0.7412562023478286L662.0209059233449,1.1292811327605068L665.5052264808362,1.4068740167009652L668.9895470383276,1.4068740167009652L672.4738675958189,1.4068740167009652L675.9581881533101,1.4068740167009652L679.4425087108013,1.4068740167009652L682.9268292682927,1.4068740167009652L686.411149825784,1.4068740167009652L689.8954703832752,1.4068740167009652L693.3797909407665,1.4068740167009652L696.8641114982579,1.4068740167009652L700.3484320557492,1.4068740167009652L703.8327526132404,1.4068740167009652L707.3170731707316,1.4068740167009652L710.801393728223,1.4068740167009652L714.2857142857143,1.4068740167009652L717.7700348432055,1.4068740167009652L721.2543554006968,1.4068740167009652L724.7386759581882,1.4068740167009652L728.2229965156795,1.4068740167009652L731.7073170731708,1.4068740167009652L735.191637630662,1.4068740167009652L738.6759581881533,1.4068740167009652L742.1602787456446,1.4068740167009652L745.6445993031359,1.4068740167009652L749.1289198606271,1.4068740167009652L752.6132404181185,1.4068740167009652L756.0975609756098,1.4068740167009652L759.5818815331011,1.4068740167009652L763.0662020905922,1.4068740167009652L766.5505226480836,1.4068740167009652L770.0348432055749,1.4068740167009652L773.5191637630662,1.4068740167009652L777.0034843205574,1.4068740167009652L780.4878048780488,1.4068740167009652L783.9721254355401,1.4068740167009652L787.4564459930314,1.4068740167009652L790.9407665505227,1.4068740167009652L794.4250871080139,1.4068740167009652L797.9094076655052,1.4068740167009652L801.3937282229965,1.4068740167009652L804.8780487804878,1.4068740167009652L808.3623693379791,1.4068740167009652L811.8466898954704,1.4068740167009652L815.3310104529617,1.4068740167009652L818.815331010453,1.4068740167009652L822.2996515679442,1.4068740167009652L825.7839721254355,1.4068740167009652L829.2682926829268,1.4068740167009652L832.7526132404182,1.4068740167009652L836.2369337979094,1.4068740167009652L839.7212543554007,1.4068740167009652L843.205574912892,1.406874016700932L846.6898954703834,1.406874016700932L850.1742160278745,1.406874016700932L853.6585365853658,1.406874016700932L857.1428571428571,1.4068740167009652L860.6271777003485,1.4068740167009652L864.1114982578397,1.4068740167009652L867.595818815331,1.406874016700932L871.0801393728223,1.4068740167009652L874.5644599303137,1.4068740167009652L878.0487804878048,1.406874016700932L881.5331010452961,1.4068740167009652L885.0174216027874,1.4068740167009652L888.5017421602788,1.4068740167009652L891.98606271777,1.4068740167009652L895.4703832752613,1.4068740167009652L898.9547038327527,1.4068740167009652L902.439024390244,1.4068740167009652L905.9233449477351,1.4068740167009652L909.4076655052264,1.4068740167009652L912.8919860627178,1.4068740167009652L916.3763066202091,1.4068740167009652L919.8606271777004,1.406874016700932L923.3449477351916,1.4068740167009652L926.829268292683,1.4068740167009652L930.3135888501743,1.4068740167009652L933.7979094076655,1.4068740167009652L937.2822299651567,1.4068740167009652L940.7665505226481,1.406874016700932L944.2508710801394,1.4068740167009652L947.7351916376307,1.4068740167009652L951.2195121951219,1.4068740167009652L954.7038327526133,1.4068740167009652L958.1881533101046,1.4068740167009652L961.6724738675958,1.4068740167009652L965.156794425087,1.4068740167009652L968.6411149825784,1.4068740167009652L972.1254355400697,0.9840554278107261L975.609756097561,0.7412562023478286L979.0940766550522,0.7412562023477953L982.5783972125436,0.7412562023477953L986.0627177700349,0.7412562023478286L989.5470383275261,0.7412562023477953L993.0313588850173,0.7412562023478286L996.5156794425087,0.7412562023477953L1000,0.7412562023477953L1000,81.99125620234781L996.5156794425087,88.45682560813262L993.0313588850173,94.23559845092583L989.5470383275261,105.4527713905361L986.0627177700349,114.99833595546413L982.5783972125436,126.21475251119448L979.0940766550522,136.10447174149823L975.609756097561,141.88627011981123L972.1254355400697,148.14156480697085L968.6411149825784,159.87534793658475L965.156794425087,168.35894953406753L961.6724738675958,175.8214328936222L958.1881533101046,182.9488381943604L954.7038327526133,192.11394166767514L951.2195121951219,198.56665254750092L947.7351916376307,207.72797410141595L944.2508710801394,218.24246641655574L940.7665505226481,228.082264310783L937.2822299651567,233.17726612610434L933.7979094076655,243.011769333172L930.3135888501743,251.15272903303887L926.829268292683,257.60165799346487L923.3449477351916,263.3713542296986L919.8606271777004,265.412077937795L916.3763066202091,270.1614123199806L912.8919860627178,273.8987050707975L909.4076655052264,276.6156359675663L905.9233449477351,280.6524567348421L902.439024390244,283.025232966235L898.9547038327527,285.06444390657146L895.4703832752613,287.4425148251241L891.98606271777,290.4930110129493L888.5017421602788,291.5111037153576L885.0174216027874,291.8552583807334L881.5331010452961,293.21069829359794L878.0487804878048,295.2468836984146L874.5644599303137,295.58650006051073L871.0801393728223,296.94420912501516L867.595818815331,296.94496550889505L864.1114982578397,297.62571100084716L860.6271777003485,298.3041873411594L857.1428571428571,298.9819072975917L853.6585365853658,298.9826636814716L850.1742160278745,299.66114002178386L846.6898954703834,299.66114002178386L843.205574912892,299.66114002178386L839.7212543554007,300L836.2369337979094,300L832.7526132404182,300L829.2682926829268,300L825.7839721254355,300L822.2996515679442,300L818.815331010453,300L815.3310104529617,300L811.8466898954704,300L808.3623693379791,300L804.8780487804878,300L801.3937282229965,300L797.9094076655052,300L794.4250871080139,300L790.9407665505227,300L787.4564459930314,300L783.9721254355401,300L780.4878048780488,300L777.0034843205574,300L773.5191637630662,300L770.0348432055749,300L766.5505226480836,300L763.0662020905922,300L759.5818815331011,300L756.0975609756098,300L752.6132404181185,300L749.1289198606271,300L745.6445993031359,300L742.1602787456446,300L738.6759581881533,300L735.191637630662,300L731.7073170731708,300L728.2229965156795,300L724.7386759581882,300L721.2543554006968,300L717.7700348432055,300L714.2857142857143,300L710.801393728223,300L707.3170731707316,300L703.8327526132404,300L700.3484320557492,300L696.8641114982579,300L693.3797909407665,300L689.8954703832752,300L686.411149825784,300L682.9268292682927,300L679.4425087108013,300L675.9581881533101,300L672.4738675958189,300L668.9895470383276,300L665.5052264808362,300L662.0209059233449,300L658.5365853658537,300L655.0522648083623,300L651.567944250871,300L648.0836236933798,300L644.5993031358886,300L641.1149825783972,300L637.6306620209059,300L634.1463414634146,300L630.6620209059233,300L627.177700348432,300L623.6933797909408,300L620.2090592334495,300L616.7247386759582,300L613.2404181184669,300L609.7560975609756,300L606.2717770034843,300L602.787456445993,300L599.3031358885017,300L595.8188153310105,300L592.3344947735192,300L588.8501742160279,300L585.3658536585366,300L581.8815331010453,300L578.397212543554,300L574.9128919860627,300L571.4285714285714,300L567.9442508710802,300L564.4599303135889,300L560.9756097560976,300L557.4912891986063,300L554.006968641115,300L550.5226480836237,300L547.0383275261323,300L543.554006968641,300L540.0696864111499,300L536.5853658536586,300L533.1010452961672,300L529.6167247386759,300L526.1324041811847,300L522.6480836236934,300L519.163763066202,300L515.6794425087107,300L512.1951219512196,300L508.7108013937283,300L505.2264808362369,300L501.74216027874564,300L498.25783972125436,300L494.77351916376307,300L491.2891986062718,300L487.8048780487805,300L484.3205574912892,300L480.8362369337979,300L477.35191637630663,300L473.86759581881535,300L470.38327526132406,300L466.89895470383277,300L463.4146341463415,300L459.9303135888502,300L456.4459930313589,300L452.96167247386757,300L449.47735191637634,300L445.993031358885,300L442.5087108013937,300L439.0243902439024,300L435.54006968641113,300L432.05574912891984,300L428.57142857142856,300L425.08710801393727,300L421.602787456446,300L418.1184668989547,300L414.6341463414634,300L411.1498257839721,300L407.66550522648083,300L404.18118466898954,300L400.69686411149826,300L397.21254355400697,300L393.7282229965157,300L390.2439024390244,300L386.7595818815331,300L383.2752613240418,300L379.79094076655053,300L376.30662020905925,300L372.82229965156796,300L369.3379790940767,300L365.8536585365854,300L362.3693379790941,298.3011618056396L358.88501742160275,296.6008108435193L355.4006968641115,291.4725281374803L351.9163763066202,286.0265642018637L348.43205574912895,281.94133486627135L344.9477351916376,275.47803461212635L341.4634146341464,270.36336681592644L337.97909407665503,262.2034975190609L334.4947735191638,250.64141353019482L331.01045296167246,239.4416374198233L327.52613240418117,230.25838073338983L324.0418118466899,221.75208761950864L320.5574912891986,209.18401307031345L317.0731707317073,199.32152365968778L313.588850174216,189.46130340070192L310.10452961672473,178.58979789422727L306.62020905923345,165.3364395498003L303.13588850174216,152.05131308241556L299.65156794425087,138.79719835410867L296.1672473867596,126.21475251119446L292.6829268292683,112.94702287304852L289.198606271777,100.01966598087861L285.7142857142857,90.15339465085322L282.22996515679444,79.27508168945903L278.74564459930315,70.42690306184195L275.26132404181186,61.61200532494251L271.7770034843205,50.05521602323611L268.2926829268293,45.28999757957158L264.80836236933794,38.13384969139536L261.3240418118467,32.341461938763146L257.83972125435537,26.55890717657026L254.35540069686414,22.804973980394514L250.87108013937282,19.058604623018272L247.38675958188153,17.68274234539512L243.90243902439025,14.28204042115453L240.41811846689896,12.574882004114718L236.93379790940767,10.1960547016822L233.44947735191639,8.156843761345767L229.9651567944251,6.79610916132154L226.48083623693378,4.752359917705428L222.9965156794425,4.07312719351326L219.5121951219512,3.0520089555851504L216.02787456445992,2.708610674089318L212.54355400696863,2.367481544233341L209.05923344947735,2.028621566017186L205.57491289198606,2.028621566017186L202.09059233449477,2.028621566017186L198.60627177700349,1.0090160958489691L195.1219512195122,1.0090160958489691L191.6376306620209,0.6693997337528845L188.15331010452962,0.02344790027835053L184.66898954703834,0.003781919399747924L181.18466898954705,0.003781919399747924L177.70034843205576,0.003781919399747924L174.21602787456447,0.004538303279677525L170.7317073170732,0.003781919399747924L167.2473867595819,0.003781919399747924L163.76306620209058,0.003781919399747924L160.2787456445993,0.003781919399747924L156.794425087108,0.003781919399714617L153.31010452961672,0.003781919399714617L149.82578397212544,0.003781919399714617L146.34146341463415,0.003781919399714617L142.85714285714286,0.003781919399747924L139.37282229965157,0.003781919399747924L135.88850174216026,0.003781919399714617L132.40418118466897,0.003781919399747924L128.91986062717768,0.003781919399714617L125.43554006968641,0.003781919399747924L121.95121951219512,0.003781919399747924L118.46689895470384,0.003781919399747924L114.98257839721255,0.003781919399747924L111.49825783972125,0.003781919399747924L108.01393728222996,0.003781919399714617L104.52961672473867,0.003781919399747924L101.04529616724739,0.003781919399714617L97.5609756097561,0.003781919399747924L94.07665505226481,0.003781919399747924L90.59233449477352,0.003781919399714617L87.10801393728224,0.003781919399714617L83.62369337979095,0.003781919399747924L80.13937282229965,0.003781919399747924L76.65505226480836,0.003781919399747924L73.17073170731707,0.003781919399747924L69.68641114982579,0.004538303279677525L66.20209059233449,0.004538303279677525L62.717770034843205,0.005294687159640432L59.23344947735192,0.6860401791117021L55.749128919860624,1.0271693089676792L52.26480836236934,2.0490439307757513L48.78048780487805,3.75468958005567L45.29616724738676,6.138055185767898L41.811846689895475,7.164468110855616L38.32752613240418,9.21426842551133L34.84320557491289,13.645165194239384L31.358885017421603,15.014976400822967L27.874564459930312,21.82621323974343L24.390243902439025,27.279741014159487L20.905923344947738,32.38835773931985L17.421602787456447,37.50075638387993L13.937282229965156,41.585985719472326L10.452961672473869,48.05609342853685L6.968641114982578,54.49745855016338L3.484320557491289,62.33813384969138L0,72.89649642986808Z" fill="coral"/></g></g><path class="foreground" aria-hidden="true" d="" display="none"/></g></g><g class="mark-group role-legend" role="graphics-symbol" aria-roledescription="legend" aria-label="Symbol legend titled 'Status' for fill color with 3 values: Awake, PrepareToSleep, Sleeping"><g transform="translate(1018,0)"><path class="background" aria-hidden="true" d="M0,0h88v53h-88Z" pointer-events="none"/><g><g class="mark-group role-legend-entry"><g transform="translate(0,16)"><path class="background" aria-hidden="true" d="M0,0h0v0h0Z" pointer-events="none"/><g><g class="mark-group role-scope" role="graphics-object" aria-roledescription="group mark container"><g transform="translate(0,0)"><path class="background" aria-hidden="true" d="M0,0h87.7138671875v11h-87.7138671875Z" pointer-events="none" opacity="1"/><g><g class="mark-symbol role-legend-symbol" pointer-events="none"><path transform="translate(6,6)" d="M5,0A5,5,0,1,1,-5,0A5,5,0,1,1,5,0" fill="coral" stroke-width="1.5" opacity="1"/></g><g class="mark-text role-legend-label" pointer-events="none"><text text-anchor="start" transform="translate(16,9)" font-family="sans-serif" font-size="10px" fill="#000" opacity="1">Awake</text></g></g><path class="foreground" aria-hidden="true" d="" pointer-events="none" display="none"/></g><g transform="translate(0,13)"><path class="background" aria-hidden="true" d="M0,0h87.7138671875v11h-87.7138671875Z" pointer-events="none" opacity="1"/><g><g class="mark-symbol role-legend-symbol" pointer-events="none"><path transform="translate(6,6)" d="M5,0A5,5,0,1,1,-5,0A5,5,0,1,1,5,0" fill="yellow" stroke-width="1.5" opacity="1"/></g><g class="mark-text role-legend-label" pointer-events="none"><text text-anchor="start" transform="translate(16,9)" font-family="sans-serif" font-size="10px" fill="#000" opacity="1">PrepareToSleep</text></g></g><path class="foreground" aria-hidden="true" d="" pointer-events="none" display="none"/></g><g transform="translate(0,26)"><path class="background" aria-hidden="true" d="M0,0h87.7138671875v11h-87.7138671875Z" pointer-events="none" opacity="1"/><g><g class="mark-symbol role-legend-symbol" pointer-events="none"><path transform="translate(6,6)" d="M5,0A5,5,0,1,1,-5,0A5,5,0,1,1,5,0" fill="steelblue" stroke-width="1.5" opacity="1"/></g><g class="mark-text role-legend-label" pointer-events="none"><text text-anchor="start" transform="translate(16,9)" font-family="sans-serif" font-size="10px" fill="#000" opacity="1">Sleeping</text></g></g><path class="foreground" aria-hidden="true" d="" pointer-events="none" display="none"/></g></g></g><path class="foreground" aria-hidden="true" d="" pointer-events="none" display="none"/></g></g><g class="mark-text role-legend-title" pointer-events="none"><text text-anchor="start" transform="translate(0,9)" font-family="sans-serif" font-size="11px" font-weight="bold" fill="#000" opacity="1">Status</text></g></g><path class="foreground" aria-hidden="true" d="" pointer-events="none" display="none"/></g></g><g class="mark-group role-title"><g transform="translate(500,-22)"><path class="background" aria-hidden="true" d="M0,0h0v0h0Z" pointer-events="none"/><g><g class="mark-text role-title-text" role="graphics-symbol" aria-roledescription="title" aria-label="Title text 'Sleep status of the population'" pointer-events="none"><text text-anchor="middle" transform="translate(0,10)" font-family="sans-serif" font-size="13px" font-weight="bold" fill="#000" opacity="1">Sleep status of the population</text></g></g><path class="foreground" aria-hidden="true" d="" pointer-events="none" display="none"/></g></g></g><path class="foreground" aria-hidden="true" d="" display="none"/></g></g></g></svg>